<svg width="56" height="56" viewBox="0 0 56 56" fill="none" xmlns="http://www.w3.org/2000/svg">
<circle cx="28" cy="28" r="3.9" fill="url(#paint0_radial_7725_177167)" stroke="#FDDDB3" stroke-width="0.2"/>
<circle cx="28" cy="28" r="21" fill="#E18308"/>
<path d="M26.2908 19.8612L17.8208 34.0012C17.6461 34.3036 17.5537 34.6465 17.5527 34.9957C17.5518 35.3449 17.6422 35.6883 17.8152 35.9917C17.9881 36.2951 18.2375 36.5479 18.5385 36.725C18.8394 36.9021 19.1816 36.9973 19.5308 37.0012H36.4708C36.82 36.9973 37.1621 36.9021 37.463 36.725C37.764 36.5479 38.0134 36.2951 38.1863 35.9917C38.3593 35.6883 38.4497 35.3449 38.4488 34.9957C38.4478 34.6465 38.3554 34.3036 38.1808 34.0012L29.7108 19.8612C29.5325 19.5673 29.2815 19.3243 28.9819 19.1557C28.6824 18.987 28.3445 18.8984 28.0008 18.8984C27.657 18.8984 27.3191 18.987 27.0196 19.1557C26.72 19.3243 26.469 19.5673 26.2908 19.8612V19.8612Z" stroke="white" stroke-width="2" stroke-linecap="round" stroke-linejoin="round"/>
<path d="M28 25V29" stroke="white" stroke-width="2" stroke-linecap="round" stroke-linejoin="round"/>
<path d="M28 33H28.01" stroke="white" stroke-width="2" stroke-linecap="round" stroke-linejoin="round"/>
<defs>
<radialGradient id="paint0_radial_7725_177167" cx="0" cy="0" r="1" gradientUnits="userSpaceOnUse" gradientTransform="translate(28 28) rotate(90) scale(4)">
<stop offset="0.143452" stop-color="white"/>
<stop offset="1" stop-color="#E3C296"/>
</radialGradient>
</defs>
</svg>
